<svg xmlns="http://www.w3.org/2000/svg" xmlns:xlink="http://www.w3.org/1999/xlink" width="2000" zoomAndPan="magnify" viewBox="0 0 1500 1499.999933" height="2000" preserveAspectRatio="xMidYMid meet" version="1.0"><rect x="-150" width="1800" fill="#ffffff" y="-149.999993" height="1799.99992" fill-opacity="1"/><rect x="-150" width="1800" fill="#ffffff" y="-149.999993" height="1799.99992" fill-opacity="1"/><path fill="#1565c0" d="M 746.21875 405.878906 L 1049.804688 519.238281 L 1049.804688 790.492188 C 1049.804688 933.542969 948.609375 1041.503906 746.21875 1114.378906 C 543.832031 1041.503906 442.636719 933.542969 442.636719 790.492188 L 442.636719 519.238281 Z M 746.21875 405.878906 " fill-opacity="1" fill-rule="nonzero"/><path fill="#1976d2" d="M 746.21875 462.558594 L 993.136719 555.675781 L 993.136719 798.589844 C 993.136719 914.648438 910.832031 1001.019531 746.21875 1057.699219 C 581.609375 1001.019531 499.304688 914.648438 499.304688 798.589844 L 499.304688 555.675781 Z M 746.21875 462.558594 " fill-opacity="0.45" fill-rule="nonzero"/><path fill="#ffffff" d="M 746.21875 600.210938 L 859.558594 697.375 L 632.882812 697.375 Z M 746.21875 600.210938 " fill-opacity="0.95" fill-rule="nonzero"/><path fill="#ffffff" d="M 665.265625 697.375 L 827.175781 697.375 C 827.707031 697.375 828.234375 697.429688 828.753906 697.53125 C 829.277344 697.636719 829.78125 697.789062 830.273438 697.992188 C 830.765625 698.195312 831.230469 698.445312 831.675781 698.742188 C 832.117188 699.035156 832.523438 699.371094 832.902344 699.746094 C 833.277344 700.125 833.613281 700.53125 833.90625 700.972656 C 834.203125 701.417969 834.453125 701.882812 834.65625 702.375 C 834.859375 702.867188 835.011719 703.371094 835.117188 703.894531 C 835.21875 704.414062 835.273438 704.941406 835.273438 705.472656 L 835.273438 826.929688 C 835.273438 827.460938 835.21875 827.988281 835.117188 828.507812 C 835.011719 829.03125 834.859375 829.539062 834.65625 830.027344 C 834.453125 830.519531 834.203125 830.984375 833.90625 831.429688 C 833.613281 831.871094 833.277344 832.28125 832.902344 832.65625 C 832.523438 833.03125 832.117188 833.367188 831.675781 833.664062 C 831.230469 833.957031 830.765625 834.207031 830.273438 834.410156 C 829.78125 834.613281 829.277344 834.769531 828.753906 834.871094 C 828.234375 834.976562 827.707031 835.027344 827.175781 835.027344 L 665.265625 835.027344 C 664.734375 835.027344 664.207031 834.976562 663.683594 834.871094 C 663.164062 834.765625 662.65625 834.613281 662.167969 834.410156 C 661.675781 834.207031 661.207031 833.957031 660.765625 833.664062 C 660.324219 833.367188 659.914062 833.03125 659.539062 832.65625 C 659.164062 832.28125 658.828125 831.871094 658.535156 831.429688 C 658.238281 830.984375 657.988281 830.519531 657.785156 830.027344 C 657.582031 829.539062 657.429688 829.03125 657.324219 828.507812 C 657.222656 827.988281 657.167969 827.460938 657.167969 826.929688 L 657.167969 705.472656 C 657.167969 704.941406 657.222656 704.414062 657.324219 703.894531 C 657.429688 703.371094 657.582031 702.867188 657.785156 702.375 C 657.988281 701.882812 658.238281 701.417969 658.535156 700.972656 C 658.828125 700.53125 659.164062 700.125 659.539062 699.746094 C 659.914062 699.371094 660.324219 699.035156 660.765625 698.742188 C 661.207031 698.445312 661.675781 698.195312 662.167969 697.992188 C 662.65625 697.789062 663.164062 697.636719 663.683594 697.53125 C 664.207031 697.429688 664.734375 697.375 665.265625 697.375 Z M 665.265625 697.375 " fill-opacity="0.95" fill-rule="nonzero"/><path fill="#1565c0" d="M 725.980469 754.054688 L 766.460938 754.054688 C 766.992188 754.054688 767.515625 754.109375 768.039062 754.210938 C 768.558594 754.316406 769.066406 754.46875 769.558594 754.671875 C 770.046875 754.875 770.515625 755.125 770.957031 755.421875 C 771.398438 755.714844 771.808594 756.050781 772.183594 756.425781 C 772.558594 756.804688 772.894531 757.210938 773.191406 757.65625 C 773.484375 758.097656 773.734375 758.5625 773.9375 759.054688 C 774.140625 759.546875 774.296875 760.050781 774.398438 760.574219 C 774.503906 761.09375 774.554688 761.621094 774.554688 762.152344 L 774.554688 826.929688 C 774.554688 827.460938 774.503906 827.988281 774.398438 828.507812 C 774.296875 829.03125 774.140625 829.539062 773.9375 830.027344 C 773.734375 830.519531 773.484375 830.984375 773.191406 831.429688 C 772.894531 831.871094 772.558594 832.28125 772.183594 832.65625 C 771.808594 833.03125 771.398438 833.367188 770.957031 833.664062 C 770.515625 833.957031 770.046875 834.207031 769.558594 834.410156 C 769.066406 834.613281 768.558594 834.769531 768.039062 834.871094 C 767.515625 834.976562 766.992188 835.027344 766.460938 835.027344 L 725.980469 835.027344 C 725.449219 835.027344 724.921875 834.976562 724.402344 834.871094 C 723.878906 834.765625 723.375 834.613281 722.882812 834.410156 C 722.390625 834.207031 721.925781 833.957031 721.484375 833.664062 C 721.042969 833.367188 720.632812 833.03125 720.257812 832.65625 C 719.882812 832.28125 719.546875 831.871094 719.25 831.429688 C 718.953125 830.984375 718.707031 830.519531 718.503906 830.027344 C 718.296875 829.539062 718.144531 829.03125 718.042969 828.507812 C 717.9375 827.988281 717.886719 827.460938 717.886719 826.929688 L 717.886719 762.152344 C 717.886719 761.621094 717.9375 761.09375 718.042969 760.574219 C 718.144531 760.050781 718.296875 759.546875 718.503906 759.054688 C 718.707031 758.5625 718.953125 758.097656 719.25 757.65625 C 719.546875 757.210938 719.882812 756.804688 720.257812 756.425781 C 720.632812 756.050781 721.042969 755.714844 721.484375 755.421875 C 721.925781 755.125 722.390625 754.875 722.882812 754.671875 C 723.375 754.46875 723.878906 754.316406 724.402344 754.210938 C 724.921875 754.109375 725.449219 754.054688 725.980469 754.054688 Z M 725.980469 754.054688 " fill-opacity="1" fill-rule="nonzero"/><path stroke-linecap="round" transform="matrix(4.047793, 0, 0, 4.048557, 442.635883, 405.879953)" fill="none" stroke-linejoin="round" d="M 30.000155 117.999932 L 44.999647 117.999932 L 51.999989 103.999958 L 61.999651 134.000039 L 69.999766 111.999529 L 77.999881 122.0002 L 85.000223 117.999932 L 120.000003 117.999932 " stroke="#ffffff" stroke-width="3.5" stroke-opacity="0.92" stroke-miterlimit="4"/></svg>