<svg xmlns="http://www.w3.org/2000/svg" xmlns:xlink="http://www.w3.org/1999/xlink" width="2000" zoomAndPan="magnify" viewBox="0 0 1500 1499.999933" height="2000" preserveAspectRatio="xMidYMid meet" version="1.0"><defs><g/></defs><rect x="-150" width="1800" fill="#ffffff" y="-149.999993" height="1799.99992" fill-opacity="1"/><rect x="-150" width="1800" fill="#ffffff" y="-149.999993" height="1799.99992" fill-opacity="1"/><path fill="#1565c0" d="M 290.636719 458.9375 L 485.773438 531.792969 L 485.773438 706.121094 C 485.773438 798.054688 420.726562 867.441406 290.636719 914.273438 C 160.542969 867.441406 95.496094 798.054688 95.496094 706.121094 L 95.496094 531.792969 Z M 290.636719 458.9375 " fill-opacity="1" fill-rule="nonzero"/><path fill="#1976d2" d="M 290.636719 495.367188 L 449.347656 555.210938 L 449.347656 711.324219 C 449.347656 785.914062 396.445312 841.421875 290.636719 877.847656 C 184.828125 841.421875 131.921875 785.914062 131.921875 711.324219 L 131.921875 555.210938 Z M 290.636719 495.367188 " fill-opacity="0.45" fill-rule="nonzero"/><path fill="#ffffff" d="M 290.636719 583.832031 L 363.488281 646.277344 L 217.785156 646.277344 Z M 290.636719 583.832031 " fill-opacity="0.95" fill-rule="nonzero"/><path fill="#ffffff" d="M 238.597656 646.277344 L 342.671875 646.277344 C 343.015625 646.277344 343.351562 646.3125 343.6875 646.378906 C 344.023438 646.445312 344.347656 646.542969 344.664062 646.671875 C 344.980469 646.804688 345.28125 646.964844 345.5625 647.152344 C 345.847656 647.34375 346.109375 647.558594 346.351562 647.800781 C 346.59375 648.042969 346.808594 648.304688 347 648.589844 C 347.1875 648.875 347.347656 649.175781 347.480469 649.488281 C 347.609375 649.804688 347.710938 650.128906 347.777344 650.464844 C 347.84375 650.800781 347.875 651.140625 347.875 651.480469 L 347.875 729.539062 C 347.875 729.878906 347.84375 730.21875 347.777344 730.554688 C 347.710938 730.890625 347.609375 731.214844 347.480469 731.53125 C 347.347656 731.84375 347.1875 732.144531 347 732.429688 C 346.808594 732.714844 346.59375 732.976562 346.351562 733.21875 C 346.109375 733.460938 345.847656 733.675781 345.5625 733.867188 C 345.28125 734.054688 344.980469 734.214844 344.664062 734.347656 C 344.347656 734.476562 344.023438 734.574219 343.6875 734.640625 C 343.351562 734.710938 343.015625 734.742188 342.671875 734.742188 L 238.597656 734.742188 C 238.257812 734.742188 237.917969 734.710938 237.582031 734.640625 C 237.25 734.574219 236.921875 734.476562 236.609375 734.347656 C 236.292969 734.214844 235.992188 734.054688 235.707031 733.867188 C 235.421875 733.675781 235.160156 733.460938 234.917969 733.21875 C 234.679688 732.976562 234.460938 732.714844 234.273438 732.429688 C 234.082031 732.144531 233.921875 731.84375 233.792969 731.53125 C 233.660156 731.214844 233.5625 730.890625 233.496094 730.554688 C 233.429688 730.21875 233.394531 729.878906 233.394531 729.539062 L 233.394531 651.480469 C 233.394531 651.140625 233.429688 650.800781 233.496094 650.464844 C 233.5625 650.128906 233.660156 649.804688 233.792969 649.488281 C 233.921875 649.175781 234.082031 648.875 234.273438 648.589844 C 234.460938 648.304688 234.679688 648.042969 234.917969 647.800781 C 235.160156 647.558594 235.421875 647.34375 235.707031 647.152344 C 235.992188 646.964844 236.292969 646.804688 236.609375 646.671875 C 236.921875 646.542969 237.25 646.445312 237.582031 646.378906 C 237.917969 646.3125 238.257812 646.277344 238.597656 646.277344 Z M 238.597656 646.277344 " fill-opacity="0.95" fill-rule="nonzero"/><path fill="#1565c0" d="M 277.625 682.703125 L 303.644531 682.703125 C 303.988281 682.703125 304.324219 682.738281 304.660156 682.804688 C 304.996094 682.871094 305.320312 682.96875 305.636719 683.101562 C 305.953125 683.230469 306.25 683.390625 306.535156 683.582031 C 306.820312 683.769531 307.082031 683.988281 307.324219 684.226562 C 307.566406 684.46875 307.78125 684.734375 307.972656 685.015625 C 308.160156 685.300781 308.320312 685.601562 308.453125 685.917969 C 308.582031 686.230469 308.683594 686.558594 308.75 686.894531 C 308.816406 687.226562 308.847656 687.566406 308.847656 687.90625 L 308.847656 729.539062 C 308.847656 729.878906 308.816406 730.21875 308.75 730.554688 C 308.683594 730.890625 308.582031 731.214844 308.453125 731.53125 C 308.320312 731.84375 308.160156 732.144531 307.972656 732.429688 C 307.78125 732.714844 307.566406 732.976562 307.324219 733.21875 C 307.082031 733.460938 306.820312 733.675781 306.535156 733.867188 C 306.25 734.054688 305.953125 734.214844 305.636719 734.347656 C 305.320312 734.476562 304.996094 734.574219 304.660156 734.640625 C 304.324219 734.710938 303.988281 734.742188 303.644531 734.742188 L 277.625 734.742188 C 277.285156 734.742188 276.945312 734.710938 276.609375 734.640625 C 276.277344 734.574219 275.949219 734.476562 275.636719 734.347656 C 275.320312 734.214844 275.019531 734.054688 274.734375 733.867188 C 274.453125 733.675781 274.1875 733.460938 273.945312 733.21875 C 273.707031 732.976562 273.488281 732.714844 273.300781 732.429688 C 273.109375 732.144531 272.949219 731.84375 272.820312 731.53125 C 272.6875 731.214844 272.589844 730.890625 272.523438 730.554688 C 272.457031 730.21875 272.421875 729.878906 272.421875 729.539062 L 272.421875 687.90625 C 272.421875 687.566406 272.457031 687.226562 272.523438 686.894531 C 272.589844 686.558594 272.6875 686.230469 272.820312 685.917969 C 272.949219 685.601562 273.109375 685.300781 273.300781 685.015625 C 273.488281 684.734375 273.707031 684.46875 273.945312 684.226562 C 274.1875 683.988281 274.453125 683.769531 274.734375 683.582031 C 275.019531 683.390625 275.320312 683.230469 275.636719 683.101562 C 275.949219 682.96875 276.277344 682.871094 276.609375 682.804688 C 276.945312 682.738281 277.285156 682.703125 277.625 682.703125 Z M 277.625 682.703125 " fill-opacity="1" fill-rule="nonzero"/><path stroke-linecap="round" transform="matrix(2.601838, 0, 0, 2.601918, 95.497861, 458.939196)" fill="none" stroke-linejoin="round" d="M 30.00065 117.999762 L 45.000564 117.999762 L 51.999823 104.000171 L 62.000266 134.000582 L 69.999419 112.000581 L 78.000074 122.000718 L 84.999333 117.999762 L 120.000133 117.999762 " stroke="#ffffff" stroke-width="3.5" stroke-opacity="0.92" stroke-miterlimit="4"/><g fill="#000000" fill-opacity="1"><g transform="translate(538.540475, 741.883332)"><g><path d="M 4.734375 0 L 49.28125 -124.359375 L 75.765625 -124.359375 L 120.234375 0 L 95.203125 0 L 85.046875 -28.8125 L 40.328125 -28.8125 L 29.921875 0 Z M 45.921875 -50.734375 L 79.03125 -50.734375 L 62.609375 -100.109375 Z M 45.921875 -50.734375 "/></g></g></g><g fill="#000000" fill-opacity="1"><g transform="translate(661.259672, 741.883332)"><g><path d="M 51.9375 29.40625 C 36.113281 29.40625 24.085938 27.398438 15.859375 23.390625 C 7.640625 19.378906 3.53125 14.101562 3.53125 7.5625 C 3.53125 4.53125 4.332031 1.984375 5.9375 -0.078125 C 7.539062 -2.148438 9.414062 -3.800781 11.5625 -5.03125 C 13.71875 -6.257812 15.695312 -7.203125 17.5 -7.859375 C 19.300781 -8.523438 20.40625 -8.972656 20.8125 -9.203125 C 19.894531 -9.710938 18.578125 -10.46875 16.859375 -11.46875 C 15.140625 -12.476562 13.546875 -13.859375 12.078125 -15.609375 C 10.617188 -17.359375 9.890625 -19.640625 9.890625 -22.453125 C 9.890625 -25.597656 11.394531 -28.519531 14.40625 -31.21875 C 17.414062 -33.914062 21.988281 -35.78125 28.125 -36.8125 C 22.269531 -39.5625 17.820312 -43.285156 14.78125 -47.984375 C 11.75 -52.691406 10.234375 -57.507812 10.234375 -62.4375 C 10.234375 -68.28125 12.066406 -73.296875 15.734375 -77.484375 C 19.398438 -81.671875 24.398438 -84.851562 30.734375 -87.03125 C 37.078125 -89.207031 44.257812 -90.296875 52.28125 -90.296875 C 58.414062 -90.296875 63.429688 -89.648438 67.328125 -88.359375 C 71.234375 -87.078125 74.847656 -85.398438 78.171875 -83.328125 C 79.492188 -83.847656 81.242188 -84.523438 83.421875 -85.359375 C 85.597656 -86.191406 87.945312 -87.109375 90.46875 -88.109375 C 92.988281 -89.109375 95.453125 -90.109375 97.859375 -91.109375 C 100.273438 -92.117188 102.425781 -93.023438 104.3125 -93.828125 L 104.234375 -74.390625 L 88.84375 -71.890625 C 89.46875 -70.347656 89.953125 -68.6875 90.296875 -66.90625 C 90.640625 -65.125 90.8125 -63.660156 90.8125 -62.515625 C 90.8125 -57.359375 89.304688 -52.539062 86.296875 -48.0625 C 83.285156 -43.59375 78.785156 -39.984375 72.796875 -37.234375 C 66.804688 -34.484375 59.394531 -33.109375 50.5625 -33.109375 C 49.476562 -33.109375 48.03125 -33.132812 46.21875 -33.1875 C 44.414062 -33.25 42.941406 -33.335938 41.796875 -33.453125 C 38.410156 -33.285156 36.085938 -32.851562 34.828125 -32.15625 C 33.566406 -31.46875 32.9375 -30.664062 32.9375 -29.75 C 32.9375 -28.375 34.222656 -27.472656 36.796875 -27.046875 C 39.378906 -26.617188 43.28125 -26.234375 48.5 -25.890625 C 50.332031 -25.773438 52.882812 -25.628906 56.15625 -25.453125 C 59.425781 -25.285156 63.039062 -25.054688 67 -24.765625 C 77.882812 -24.023438 86.007812 -21.34375 91.375 -16.71875 C 96.738281 -12.101562 99.421875 -6.300781 99.421875 0.6875 C 99.421875 9 95.476562 15.863281 87.59375 21.28125 C 79.707031 26.695312 67.820312 29.40625 51.9375 29.40625 Z M 55.984375 15.390625 C 62.984375 15.390625 67.972656 14.53125 70.953125 12.8125 C 73.929688 11.09375 75.421875 8.628906 75.421875 5.421875 C 75.421875 2.722656 74.273438 0.53125 71.984375 -1.15625 C 69.691406 -2.851562 66.335938 -3.84375 61.921875 -4.125 L 41.53125 -5.5 C 38.894531 -5.613281 36.554688 -5.210938 34.515625 -4.296875 C 32.484375 -3.378906 30.910156 -2.117188 29.796875 -0.515625 C 28.679688 1.085938 28.125 2.804688 28.125 4.640625 C 28.125 8.367188 30.382812 11.09375 34.90625 12.8125 C 39.4375 14.53125 46.460938 15.390625 55.984375 15.390625 Z M 51.25 -47.125 C 56.007812 -47.125 59.835938 -48.425781 62.734375 -51.03125 C 65.628906 -53.644531 67.078125 -57.1875 67.078125 -61.65625 C 67.078125 -66.300781 65.628906 -70.03125 62.734375 -72.84375 C 59.835938 -75.65625 56.007812 -77.0625 51.25 -77.0625 C 46.550781 -77.0625 42.722656 -75.65625 39.765625 -72.84375 C 36.816406 -70.03125 35.34375 -66.300781 35.34375 -61.65625 C 35.34375 -57.25 36.757812 -53.722656 39.59375 -51.078125 C 42.4375 -48.441406 46.320312 -47.125 51.25 -47.125 Z M 51.25 -47.125 "/></g></g></g><g fill="#000000" fill-opacity="1"><g transform="translate(766.693257, 741.883332)"><g><path d="M 36.546875 1.71875 C 30.867188 1.71875 25.765625 0.660156 21.234375 -1.453125 C 16.710938 -3.578125 13.128906 -6.660156 10.484375 -10.703125 C 7.847656 -14.742188 6.53125 -19.660156 6.53125 -25.453125 C 6.53125 -35.203125 10.171875 -42.613281 17.453125 -47.6875 C 24.734375 -52.757812 36.226562 -55.382812 51.9375 -55.5625 L 63.03125 -55.734375 L 63.03125 -61.0625 C 63.03125 -65.132812 61.84375 -68.269531 59.46875 -70.46875 C 57.09375 -72.675781 53.410156 -73.753906 48.421875 -73.703125 C 44.742188 -73.640625 41.257812 -72.773438 37.96875 -71.109375 C 34.675781 -69.453125 32.425781 -66.5625 31.21875 -62.4375 L 10.3125 -62.4375 C 10.664062 -68.851562 12.53125 -74.140625 15.90625 -78.296875 C 19.289062 -82.453125 23.890625 -85.546875 29.703125 -87.578125 C 35.523438 -89.617188 42.132812 -90.640625 49.53125 -90.640625 C 58.644531 -90.640625 65.953125 -89.503906 71.453125 -87.234375 C 76.960938 -84.972656 80.953125 -81.734375 83.421875 -77.515625 C 85.890625 -73.304688 87.125 -68.304688 87.125 -62.515625 L 87.125 0 L 66.140625 0 L 64.0625 -15.3125 C 61.03125 -8.882812 57.234375 -4.4375 52.671875 -1.96875 C 48.117188 0.488281 42.742188 1.71875 36.546875 1.71875 Z M 44.984375 -14.796875 C 47.273438 -14.796875 49.492188 -15.207031 51.640625 -16.03125 C 53.796875 -16.863281 55.71875 -17.984375 57.40625 -19.390625 C 59.09375 -20.796875 60.453125 -22.382812 61.484375 -24.15625 C 62.515625 -25.9375 63.03125 -27.773438 63.03125 -29.671875 L 63.03125 -42.828125 L 54.015625 -42.65625 C 49.828125 -42.59375 45.925781 -42.085938 42.3125 -41.140625 C 38.695312 -40.203125 35.785156 -38.671875 33.578125 -36.546875 C 31.367188 -34.429688 30.265625 -31.566406 30.265625 -27.953125 C 30.265625 -23.828125 31.695312 -20.601562 34.5625 -18.28125 C 37.4375 -15.957031 40.910156 -14.796875 44.984375 -14.796875 Z M 44.984375 -14.796875 "/></g></g></g><g fill="#000000" fill-opacity="1"><g transform="translate(865.333034, 741.883332)"><g><path d="M 10.75 27.6875 L 10.75 -88.921875 L 35.953125 -88.921875 L 36.03125 -76.109375 C 37.351562 -78.234375 38.972656 -80.164062 40.890625 -81.90625 C 42.816406 -83.65625 44.953125 -85.191406 47.296875 -86.515625 C 49.648438 -87.835938 52.203125 -88.851562 54.953125 -89.5625 C 57.703125 -90.28125 60.597656 -90.640625 63.640625 -90.640625 C 70.234375 -90.640625 76.109375 -89.019531 81.265625 -85.78125 C 86.429688 -82.539062 90.488281 -77.550781 93.4375 -70.8125 C 96.394531 -64.082031 97.875 -55.53125 97.875 -45.15625 C 97.875 -34.375 96.28125 -25.523438 93.09375 -18.609375 C 89.914062 -11.703125 85.546875 -6.585938 79.984375 -3.265625 C 74.421875 0.0546875 68.140625 1.71875 61.140625 1.71875 C 58.273438 1.71875 55.582031 1.328125 53.0625 0.546875 C 50.539062 -0.222656 48.203125 -1.296875 46.046875 -2.671875 C 43.898438 -4.046875 41.976562 -5.632812 40.28125 -7.4375 C 38.59375 -9.238281 37.117188 -11.203125 35.859375 -13.328125 L 35.859375 27.6875 Z M 55.125 -16.6875 C 60.570312 -16.6875 65.144531 -18.945312 68.84375 -23.46875 C 72.539062 -28 74.390625 -35.171875 74.390625 -44.984375 C 74.390625 -53.578125 72.625 -60.296875 69.09375 -65.140625 C 65.570312 -69.984375 60.914062 -72.40625 55.125 -72.40625 C 48.644531 -72.40625 43.8125 -69.78125 40.625 -64.53125 C 37.445312 -59.289062 35.859375 -52.773438 35.859375 -44.984375 C 35.859375 -39.992188 36.5625 -35.347656 37.96875 -31.046875 C 39.375 -26.742188 41.492188 -23.273438 44.328125 -20.640625 C 47.171875 -18.003906 50.769531 -16.6875 55.125 -16.6875 Z M 55.125 -16.6875 "/></g></g></g><g fill="#000000" fill-opacity="1"><g transform="translate(968.616686, 741.883332)"><g><path d="M 36.546875 1.71875 C 30.867188 1.71875 25.765625 0.660156 21.234375 -1.453125 C 16.710938 -3.578125 13.128906 -6.660156 10.484375 -10.703125 C 7.847656 -14.742188 6.53125 -19.660156 6.53125 -25.453125 C 6.53125 -35.203125 10.171875 -42.613281 17.453125 -47.6875 C 24.734375 -52.757812 36.226562 -55.382812 51.9375 -55.5625 L 63.03125 -55.734375 L 63.03125 -61.0625 C 63.03125 -65.132812 61.84375 -68.269531 59.46875 -70.46875 C 57.09375 -72.675781 53.410156 -73.753906 48.421875 -73.703125 C 44.742188 -73.640625 41.257812 -72.773438 37.96875 -71.109375 C 34.675781 -69.453125 32.425781 -66.5625 31.21875 -62.4375 L 10.3125 -62.4375 C 10.664062 -68.851562 12.53125 -74.140625 15.90625 -78.296875 C 19.289062 -82.453125 23.890625 -85.546875 29.703125 -87.578125 C 35.523438 -89.617188 42.132812 -90.640625 49.53125 -90.640625 C 58.644531 -90.640625 65.953125 -89.503906 71.453125 -87.234375 C 76.960938 -84.972656 80.953125 -81.734375 83.421875 -77.515625 C 85.890625 -73.304688 87.125 -68.304688 87.125 -62.515625 L 87.125 0 L 66.140625 0 L 64.0625 -15.3125 C 61.03125 -8.882812 57.234375 -4.4375 52.671875 -1.96875 C 48.117188 0.488281 42.742188 1.71875 36.546875 1.71875 Z M 44.984375 -14.796875 C 47.273438 -14.796875 49.492188 -15.207031 51.640625 -16.03125 C 53.796875 -16.863281 55.71875 -17.984375 57.40625 -19.390625 C 59.09375 -20.796875 60.453125 -22.382812 61.484375 -24.15625 C 62.515625 -25.9375 63.03125 -27.773438 63.03125 -29.671875 L 63.03125 -42.828125 L 54.015625 -42.65625 C 49.828125 -42.59375 45.925781 -42.085938 42.3125 -41.140625 C 38.695312 -40.203125 35.785156 -38.671875 33.578125 -36.546875 C 31.367188 -34.429688 30.265625 -31.566406 30.265625 -27.953125 C 30.265625 -23.828125 31.695312 -20.601562 34.5625 -18.28125 C 37.4375 -15.957031 40.910156 -14.796875 44.984375 -14.796875 Z M 44.984375 -14.796875 "/></g></g></g><g fill="#000000" fill-opacity="1"><g transform="translate(1064.074502, 741.883332)"><g><path d="M 24.59375 28.375 C 18.519531 28.375 14.234375 27.875 11.734375 26.875 C 9.242188 25.875 8 25.375 8 25.375 L 8 9.375 L 16.765625 9.71875 C 20.609375 9.945312 23.703125 9.757812 26.046875 9.15625 C 28.398438 8.550781 30.191406 7.757812 31.421875 6.78125 C 32.660156 5.8125 33.535156 4.796875 34.046875 3.734375 C 34.566406 2.679688 34.941406 1.835938 35.171875 1.203125 L 36.8125 -3.703125 L 2.234375 -88.921875 L 27.09375 -88.921875 L 48.421875 -30.953125 L 70 -88.921875 L 94.515625 -88.921875 L 58.484375 0.515625 C 55.390625 8.085938 52.117188 13.878906 48.671875 17.890625 C 45.234375 21.898438 41.519531 24.648438 37.53125 26.140625 C 33.550781 27.628906 29.238281 28.375 24.59375 28.375 Z M 24.59375 28.375 "/></g></g></g><g fill="#000000" fill-opacity="1"><g transform="translate(1160.822297, 741.883332)"><g><path d="M 60.625 1.71875 C 54.488281 1.71875 48.46875 0.945312 42.5625 -0.59375 C 36.664062 -2.144531 31.28125 -4.46875 26.40625 -7.5625 C 21.53125 -10.664062 17.5 -14.535156 14.3125 -19.171875 C 11.132812 -23.816406 9.226562 -29.265625 8.59375 -35.515625 L 34.3125 -35.515625 C 35.175781 -31.734375 36.8125 -28.550781 39.21875 -25.96875 C 41.625 -23.394531 44.660156 -21.414062 48.328125 -20.03125 C 52.003906 -18.65625 56.078125 -17.96875 60.546875 -17.96875 C 65.128906 -17.96875 69.3125 -18.539062 73.09375 -19.6875 C 76.882812 -20.832031 79.925781 -22.566406 82.21875 -24.890625 C 84.507812 -27.210938 85.65625 -30.125 85.65625 -33.625 C 85.65625 -36.78125 84.722656 -39.359375 82.859375 -41.359375 C 80.992188 -43.367188 78.484375 -45.003906 75.328125 -46.265625 C 72.179688 -47.523438 68.601562 -48.554688 64.59375 -49.359375 L 43.09375 -53.75 C 33.6875 -55.53125 26.226562 -59.269531 20.71875 -64.96875 C 15.21875 -70.675781 12.382812 -78.289062 12.21875 -87.8125 C 12.15625 -95.601562 14.226562 -102.347656 18.4375 -108.046875 C 22.65625 -113.753906 28.390625 -118.15625 35.640625 -121.25 C 42.898438 -124.351562 51.03125 -125.90625 60.03125 -125.90625 C 70.75 -125.90625 79.765625 -124.226562 87.078125 -120.875 C 94.390625 -117.519531 99.953125 -112.988281 103.765625 -107.28125 C 107.578125 -101.582031 109.539062 -95.234375 109.65625 -88.234375 L 84.453125 -88.234375 C 83.992188 -92.585938 82.675781 -96.054688 80.5 -98.640625 C 78.320312 -101.222656 75.523438 -103.085938 72.109375 -104.234375 C 68.703125 -105.378906 64.816406 -105.953125 60.453125 -105.953125 C 57.128906 -105.953125 54.101562 -105.578125 51.375 -104.828125 C 48.65625 -104.085938 46.347656 -103.039062 44.453125 -101.6875 C 42.566406 -100.34375 41.109375 -98.753906 40.078125 -96.921875 C 39.046875 -95.085938 38.53125 -93.023438 38.53125 -90.734375 C 38.53125 -87.117188 39.734375 -84.191406 42.140625 -81.953125 C 44.546875 -79.722656 49.046875 -77.890625 55.640625 -76.453125 L 76.96875 -72.0625 C 84.59375 -70.570312 90.65625 -68.363281 95.15625 -65.4375 C 99.65625 -62.519531 103.035156 -59.222656 105.296875 -55.546875 C 107.566406 -51.878906 109.0625 -48.140625 109.78125 -44.328125 C 110.5 -40.515625 110.859375 -37.003906 110.859375 -33.796875 C 110.859375 -27.085938 108.75 -21.050781 104.53125 -15.6875 C 100.320312 -10.332031 94.460938 -6.09375 86.953125 -2.96875 C 79.441406 0.15625 70.664062 1.71875 60.625 1.71875 Z M 60.625 1.71875 "/></g></g></g><g fill="#000000" fill-opacity="1"><g transform="translate(1279.843587, 741.883332)"><g><path d="M 13.9375 -124.359375 L 98.5625 -124.359375 L 98.46875 -103.375 L 39.21875 -103.375 L 39.21875 -72.15625 L 90.5625 -72.15625 L 90.5625 -51.59375 L 39.21875 -51.59375 L 39.21875 0 L 13.9375 0 Z M 13.9375 -124.359375 "/></g></g></g></svg>