<svg xmlns="http://www.w3.org/2000/svg" xmlns:xlink="http://www.w3.org/1999/xlink" width="1500" zoomAndPan="magnify" viewBox="0 0 1125 749.999995" height="1000" preserveAspectRatio="xMidYMid meet" version="1.0"><defs><g/><clipPath id="b6f7d002a0"><path d="M 373 108 L 1082.359375 108 L 1082.359375 279 L 373 279 Z M 373 108 " clip-rule="nonzero"/></clipPath><clipPath id="4599aa8bc9"><rect x="0" width="710" y="0" height="171"/></clipPath><clipPath id="512527f6b0"><rect x="0" width="1083" y="0" height="417"/></clipPath></defs><g transform="matrix(1, 0, 0, 1, 19, 158)"><g clip-path="url(#512527f6b0)"><path fill="#1565c0" d="M 165.855469 8.84375 L 329.121094 69.789062 L 329.121094 215.621094 C 329.121094 292.527344 274.699219 350.570312 165.855469 389.75 C 57.007812 350.570312 2.585938 292.527344 2.585938 215.621094 L 2.585938 69.789062 Z M 165.855469 8.84375 " fill-opacity="1" fill-rule="nonzero"/><path fill="#1976d2" d="M 165.855469 39.316406 L 298.644531 89.378906 L 298.644531 219.976562 C 298.644531 282.371094 254.378906 328.804688 165.855469 359.277344 C 77.328125 328.804688 33.0625 282.371094 33.0625 219.976562 L 33.0625 89.378906 Z M 165.855469 39.316406 " fill-opacity="0.45" fill-rule="nonzero"/><path fill="#ffffff" d="M 165.855469 113.320312 L 226.808594 165.558594 L 104.902344 165.558594 Z M 165.855469 113.320312 " fill-opacity="0.95" fill-rule="nonzero"/><path fill="#ffffff" d="M 122.316406 165.558594 L 209.390625 165.558594 C 209.675781 165.558594 209.960938 165.585938 210.242188 165.644531 C 210.519531 165.699219 210.792969 165.78125 211.058594 165.890625 C 211.320312 166 211.574219 166.132812 211.808594 166.292969 C 212.046875 166.453125 212.269531 166.632812 212.46875 166.835938 C 212.671875 167.035156 212.851562 167.257812 213.011719 167.496094 C 213.171875 167.730469 213.304688 167.984375 213.414062 168.246094 C 213.523438 168.511719 213.605469 168.785156 213.660156 169.0625 C 213.71875 169.34375 213.746094 169.628906 213.746094 169.914062 L 213.746094 235.210938 C 213.746094 235.496094 213.71875 235.78125 213.660156 236.058594 C 213.605469 236.339844 213.523438 236.613281 213.414062 236.878906 C 213.304688 237.140625 213.171875 237.390625 213.011719 237.628906 C 212.851562 237.867188 212.671875 238.085938 212.46875 238.289062 C 212.269531 238.492188 212.046875 238.671875 211.808594 238.832031 C 211.574219 238.988281 211.320312 239.125 211.058594 239.234375 C 210.792969 239.34375 210.519531 239.425781 210.242188 239.480469 C 209.960938 239.535156 209.675781 239.5625 209.390625 239.5625 L 122.316406 239.5625 C 122.03125 239.5625 121.746094 239.535156 121.464844 239.480469 C 121.1875 239.425781 120.914062 239.34375 120.648438 239.234375 C 120.386719 239.125 120.136719 238.988281 119.898438 238.832031 C 119.660156 238.671875 119.441406 238.492188 119.238281 238.289062 C 119.035156 238.085938 118.855469 237.867188 118.695312 237.628906 C 118.535156 237.390625 118.402344 237.140625 118.292969 236.878906 C 118.183594 236.613281 118.101562 236.339844 118.046875 236.058594 C 117.988281 235.78125 117.960938 235.496094 117.960938 235.210938 L 117.960938 169.914062 C 117.960938 169.628906 117.988281 169.34375 118.046875 169.0625 C 118.101562 168.785156 118.183594 168.511719 118.292969 168.246094 C 118.402344 167.984375 118.535156 167.730469 118.695312 167.496094 C 118.855469 167.257812 119.035156 167.035156 119.238281 166.835938 C 119.441406 166.632812 119.660156 166.453125 119.898438 166.292969 C 120.136719 166.132812 120.386719 166 120.648438 165.890625 C 120.914062 165.78125 121.1875 165.699219 121.464844 165.644531 C 121.746094 165.585938 122.03125 165.558594 122.316406 165.558594 Z M 122.316406 165.558594 " fill-opacity="0.95" fill-rule="nonzero"/><path fill="#1565c0" d="M 154.96875 196.03125 L 176.738281 196.03125 C 177.023438 196.03125 177.308594 196.058594 177.585938 196.117188 C 177.867188 196.171875 178.140625 196.253906 178.40625 196.363281 C 178.667969 196.472656 178.917969 196.605469 179.15625 196.765625 C 179.394531 196.925781 179.613281 197.105469 179.816406 197.308594 C 180.019531 197.507812 180.199219 197.730469 180.359375 197.96875 C 180.515625 198.203125 180.652344 198.457031 180.761719 198.71875 C 180.871094 198.984375 180.953125 199.257812 181.007812 199.535156 C 181.0625 199.816406 181.09375 200.101562 181.09375 200.386719 L 181.09375 235.210938 C 181.09375 235.496094 181.0625 235.78125 181.007812 236.058594 C 180.953125 236.339844 180.871094 236.613281 180.761719 236.878906 C 180.652344 237.140625 180.515625 237.390625 180.359375 237.628906 C 180.199219 237.867188 180.019531 238.085938 179.816406 238.289062 C 179.613281 238.492188 179.394531 238.671875 179.15625 238.832031 C 178.917969 238.988281 178.667969 239.125 178.40625 239.234375 C 178.140625 239.34375 177.867188 239.425781 177.585938 239.480469 C 177.308594 239.535156 177.023438 239.5625 176.738281 239.5625 L 154.96875 239.5625 C 154.683594 239.5625 154.398438 239.535156 154.121094 239.480469 C 153.839844 239.425781 153.566406 239.34375 153.304688 239.234375 C 153.039062 239.125 152.789062 238.988281 152.550781 238.832031 C 152.3125 238.671875 152.09375 238.492188 151.890625 238.289062 C 151.6875 238.085938 151.507812 237.867188 151.347656 237.628906 C 151.191406 237.390625 151.054688 237.140625 150.945312 236.878906 C 150.835938 236.613281 150.753906 236.339844 150.699219 236.058594 C 150.644531 235.78125 150.617188 235.496094 150.617188 235.210938 L 150.617188 200.386719 C 150.617188 200.101562 150.644531 199.816406 150.699219 199.535156 C 150.753906 199.257812 150.835938 198.984375 150.945312 198.71875 C 151.054688 198.457031 151.191406 198.203125 151.347656 197.96875 C 151.507812 197.730469 151.6875 197.507812 151.890625 197.308594 C 152.09375 197.105469 152.3125 196.925781 152.550781 196.765625 C 152.789062 196.605469 153.039062 196.472656 153.304688 196.363281 C 153.566406 196.253906 153.839844 196.171875 154.121094 196.117188 C 154.398438 196.058594 154.683594 196.03125 154.96875 196.03125 Z M 154.96875 196.03125 " fill-opacity="1" fill-rule="nonzero"/><path stroke-linecap="round" transform="matrix(2.176891, 0, 0, 2.176607, 2.586966, 8.844133)" fill="none" stroke-linejoin="round" d="M 30.000388 117.999943 L 44.999921 117.999943 L 51.999942 103.999868 L 62.000229 133.99926 L 69.999741 112.000424 L 77.999253 122.000221 L 84.999274 117.999943 L 119.999381 117.999943 " stroke="#ffffff" stroke-width="3.5" stroke-opacity="0.92" stroke-miterlimit="4"/><g clip-path="url(#b6f7d002a0)"><g transform="matrix(1, 0, 0, 1, 373, 108)"><g clip-path="url(#4599aa8bc9)"><g fill="#000000" fill-opacity="1"><g transform="translate(0.217846, 137.588269)"><g><path d="M 3.953125 0 L 41.234375 -104.046875 L 63.390625 -104.046875 L 100.59375 0 L 79.65625 0 L 71.15625 -24.109375 L 33.75 -24.109375 L 25.046875 0 Z M 38.421875 -42.453125 L 66.125 -42.453125 L 52.375 -83.75 Z M 38.421875 -42.453125 "/></g></g></g><g fill="#000000" fill-opacity="1"><g transform="translate(102.888846, 137.588269)"><g><path d="M 43.453125 24.609375 C 30.210938 24.609375 20.148438 22.925781 13.265625 19.5625 C 6.390625 16.207031 2.953125 11.796875 2.953125 6.328125 C 2.953125 3.785156 3.625 1.65625 4.96875 -0.0625 C 6.3125 -1.789062 7.878906 -3.171875 9.671875 -4.203125 C 11.472656 -5.234375 13.128906 -6.023438 14.640625 -6.578125 C 16.148438 -7.128906 17.070312 -7.503906 17.40625 -7.703125 C 16.644531 -8.128906 15.539062 -8.757812 14.09375 -9.59375 C 12.65625 -10.4375 11.328125 -11.585938 10.109375 -13.046875 C 8.890625 -14.515625 8.28125 -16.425781 8.28125 -18.78125 C 8.28125 -21.414062 9.535156 -23.859375 12.046875 -26.109375 C 14.566406 -28.367188 18.394531 -29.929688 23.53125 -30.796875 C 18.632812 -33.097656 14.914062 -36.210938 12.375 -40.140625 C 9.832031 -44.078125 8.5625 -48.109375 8.5625 -52.234375 C 8.5625 -57.128906 10.09375 -61.328125 13.15625 -64.828125 C 16.226562 -68.328125 20.414062 -70.988281 25.71875 -72.8125 C 31.019531 -74.632812 37.03125 -75.546875 43.75 -75.546875 C 48.882812 -75.546875 53.082031 -75.003906 56.34375 -73.921875 C 59.601562 -72.847656 62.625 -71.445312 65.40625 -69.71875 C 66.507812 -70.15625 67.972656 -70.71875 69.796875 -71.40625 C 71.617188 -72.101562 73.582031 -72.867188 75.6875 -73.703125 C 77.800781 -74.546875 79.863281 -75.390625 81.875 -76.234375 C 83.894531 -77.078125 85.695312 -77.832031 87.28125 -78.5 L 87.203125 -62.234375 L 74.328125 -60.15625 C 74.859375 -58.851562 75.265625 -57.457031 75.546875 -55.96875 C 75.835938 -54.488281 75.984375 -53.269531 75.984375 -52.3125 C 75.984375 -47.988281 74.722656 -43.957031 72.203125 -40.21875 C 69.679688 -36.476562 65.914062 -33.457031 60.90625 -31.15625 C 55.894531 -28.851562 49.695312 -27.703125 42.3125 -27.703125 C 41.394531 -27.703125 40.179688 -27.722656 38.671875 -27.765625 C 37.160156 -27.816406 35.925781 -27.890625 34.96875 -27.984375 C 32.132812 -27.847656 30.191406 -27.488281 29.140625 -26.90625 C 28.085938 -26.332031 27.5625 -25.660156 27.5625 -24.890625 C 27.5625 -23.742188 28.640625 -22.988281 30.796875 -22.625 C 32.953125 -22.269531 36.210938 -21.945312 40.578125 -21.65625 C 42.117188 -21.5625 44.253906 -21.441406 46.984375 -21.296875 C 49.722656 -21.148438 52.742188 -20.957031 56.046875 -20.71875 C 65.160156 -20.09375 71.957031 -17.847656 76.4375 -13.984375 C 80.925781 -10.128906 83.171875 -5.273438 83.171875 0.578125 C 83.171875 7.535156 79.875 13.28125 73.28125 17.8125 C 66.6875 22.34375 56.742188 24.609375 43.453125 24.609375 Z M 46.84375 12.875 C 52.695312 12.875 56.867188 12.15625 59.359375 10.71875 C 61.859375 9.28125 63.109375 7.21875 63.109375 4.53125 C 63.109375 2.28125 62.144531 0.445312 60.21875 -0.96875 C 58.300781 -2.382812 55.5 -3.210938 51.8125 -3.453125 L 34.75 -4.609375 C 32.539062 -4.703125 30.582031 -4.363281 28.875 -3.59375 C 27.175781 -2.832031 25.859375 -1.78125 24.921875 -0.4375 C 23.992188 0.90625 23.53125 2.347656 23.53125 3.890625 C 23.53125 7.003906 25.421875 9.28125 29.203125 10.71875 C 32.992188 12.15625 38.875 12.875 46.84375 12.875 Z M 42.890625 -39.4375 C 46.867188 -39.4375 50.066406 -40.523438 52.484375 -42.703125 C 54.910156 -44.890625 56.125 -47.851562 56.125 -51.59375 C 56.125 -55.476562 54.910156 -58.59375 52.484375 -60.9375 C 50.066406 -63.289062 46.867188 -64.46875 42.890625 -64.46875 C 38.953125 -64.46875 35.75 -63.289062 33.28125 -60.9375 C 30.8125 -58.59375 29.578125 -55.476562 29.578125 -51.59375 C 29.578125 -47.894531 30.765625 -44.941406 33.140625 -42.734375 C 35.515625 -40.535156 38.765625 -39.4375 42.890625 -39.4375 Z M 42.890625 -39.4375 "/></g></g></g><g fill="#000000" fill-opacity="1"><g transform="translate(191.098122, 137.588269)"><g><path d="M 30.578125 1.4375 C 25.828125 1.4375 21.554688 0.550781 17.765625 -1.21875 C 13.984375 -3 10.988281 -5.578125 8.78125 -8.953125 C 6.570312 -12.335938 5.46875 -16.453125 5.46875 -21.296875 C 5.46875 -29.453125 8.515625 -35.648438 14.609375 -39.890625 C 20.703125 -44.140625 30.316406 -46.335938 43.453125 -46.484375 L 52.734375 -46.625 L 52.734375 -51.09375 C 52.734375 -54.5 51.738281 -57.125 49.75 -58.96875 C 47.757812 -60.8125 44.679688 -61.707031 40.515625 -61.65625 C 37.441406 -61.613281 34.523438 -60.894531 31.765625 -59.5 C 29.003906 -58.113281 27.125 -55.691406 26.125 -52.234375 L 8.640625 -52.234375 C 8.921875 -57.609375 10.476562 -62.035156 13.3125 -65.515625 C 16.144531 -68.992188 19.992188 -71.582031 24.859375 -73.28125 C 29.722656 -74.988281 35.25 -75.84375 41.4375 -75.84375 C 49.070312 -75.84375 55.191406 -74.894531 59.796875 -73 C 64.398438 -71.101562 67.734375 -68.390625 69.796875 -64.859375 C 71.859375 -61.335938 72.890625 -57.15625 72.890625 -52.3125 L 72.890625 0 L 55.328125 0 L 53.609375 -12.8125 C 51.066406 -7.4375 47.882812 -3.71875 44.0625 -1.65625 C 40.25 0.40625 35.753906 1.4375 30.578125 1.4375 Z M 37.625 -12.375 C 39.550781 -12.375 41.410156 -12.722656 43.203125 -13.421875 C 45.003906 -14.117188 46.613281 -15.050781 48.03125 -16.21875 C 49.445312 -17.394531 50.582031 -18.726562 51.4375 -20.21875 C 52.300781 -21.707031 52.734375 -23.242188 52.734375 -24.828125 L 52.734375 -35.828125 L 45.1875 -35.6875 C 41.6875 -35.632812 38.425781 -35.210938 35.40625 -34.421875 C 32.382812 -33.640625 29.945312 -32.359375 28.09375 -30.578125 C 26.25 -28.804688 25.328125 -26.410156 25.328125 -23.390625 C 25.328125 -19.929688 26.523438 -17.226562 28.921875 -15.28125 C 31.316406 -13.34375 34.21875 -12.375 37.625 -12.375 Z M 37.625 -12.375 "/></g></g></g><g fill="#000000" fill-opacity="1"><g transform="translate(273.62347, 137.588269)"><g><path d="M 9 23.171875 L 9 -74.40625 L 30.078125 -74.40625 L 30.140625 -63.671875 C 31.242188 -65.453125 32.597656 -67.070312 34.203125 -68.53125 C 35.816406 -70 37.609375 -71.285156 39.578125 -72.390625 C 41.546875 -73.492188 43.679688 -74.34375 45.984375 -74.9375 C 48.285156 -75.539062 50.707031 -75.84375 53.25 -75.84375 C 58.757812 -75.84375 63.671875 -74.484375 67.984375 -71.765625 C 72.304688 -69.054688 75.703125 -64.882812 78.171875 -59.25 C 80.640625 -53.613281 81.875 -46.457031 81.875 -37.78125 C 81.875 -28.757812 80.539062 -21.359375 77.875 -15.578125 C 75.21875 -9.796875 71.5625 -5.515625 66.90625 -2.734375 C 62.257812 0.046875 57.007812 1.4375 51.15625 1.4375 C 48.757812 1.4375 46.503906 1.113281 44.390625 0.46875 C 42.285156 -0.175781 40.332031 -1.070312 38.53125 -2.21875 C 36.726562 -3.375 35.117188 -4.707031 33.703125 -6.21875 C 32.296875 -7.726562 31.0625 -9.375 30 -11.15625 L 30 23.171875 Z M 46.125 -13.953125 C 50.675781 -13.953125 54.5 -15.847656 57.59375 -19.640625 C 60.6875 -23.429688 62.234375 -29.425781 62.234375 -37.625 C 62.234375 -44.820312 60.757812 -50.445312 57.8125 -54.5 C 54.863281 -58.550781 50.96875 -60.578125 46.125 -60.578125 C 40.695312 -60.578125 36.648438 -58.382812 33.984375 -54 C 31.328125 -49.613281 30 -44.15625 30 -37.625 C 30 -33.457031 30.585938 -29.570312 31.765625 -25.96875 C 32.941406 -22.375 34.71875 -19.472656 37.09375 -17.265625 C 39.46875 -15.054688 42.476562 -13.953125 46.125 -13.953125 Z M 46.125 -13.953125 "/></g></g></g><g fill="#000000" fill-opacity="1"><g transform="translate(360.034041, 137.588269)"><g><path d="M 30.578125 1.4375 C 25.828125 1.4375 21.554688 0.550781 17.765625 -1.21875 C 13.984375 -3 10.988281 -5.578125 8.78125 -8.953125 C 6.570312 -12.335938 5.46875 -16.453125 5.46875 -21.296875 C 5.46875 -29.453125 8.515625 -35.648438 14.609375 -39.890625 C 20.703125 -44.140625 30.316406 -46.335938 43.453125 -46.484375 L 52.734375 -46.625 L 52.734375 -51.09375 C 52.734375 -54.5 51.738281 -57.125 49.75 -58.96875 C 47.757812 -60.8125 44.679688 -61.707031 40.515625 -61.65625 C 37.441406 -61.613281 34.523438 -60.894531 31.765625 -59.5 C 29.003906 -58.113281 27.125 -55.691406 26.125 -52.234375 L 8.640625 -52.234375 C 8.921875 -57.609375 10.476562 -62.035156 13.3125 -65.515625 C 16.144531 -68.992188 19.992188 -71.582031 24.859375 -73.28125 C 29.722656 -74.988281 35.25 -75.84375 41.4375 -75.84375 C 49.070312 -75.84375 55.191406 -74.894531 59.796875 -73 C 64.398438 -71.101562 67.734375 -68.390625 69.796875 -64.859375 C 71.859375 -61.335938 72.890625 -57.15625 72.890625 -52.3125 L 72.890625 0 L 55.328125 0 L 53.609375 -12.8125 C 51.066406 -7.4375 47.882812 -3.71875 44.0625 -1.65625 C 40.25 0.40625 35.753906 1.4375 30.578125 1.4375 Z M 37.625 -12.375 C 39.550781 -12.375 41.410156 -12.722656 43.203125 -13.421875 C 45.003906 -14.117188 46.613281 -15.050781 48.03125 -16.21875 C 49.445312 -17.394531 50.582031 -18.726562 51.4375 -20.21875 C 52.300781 -21.707031 52.734375 -23.242188 52.734375 -24.828125 L 52.734375 -35.828125 L 45.1875 -35.6875 C 41.6875 -35.632812 38.425781 -35.210938 35.40625 -34.421875 C 32.382812 -33.640625 29.945312 -32.359375 28.09375 -30.578125 C 26.25 -28.804688 25.328125 -26.410156 25.328125 -23.390625 C 25.328125 -19.929688 26.523438 -17.226562 28.921875 -15.28125 C 31.316406 -13.34375 34.21875 -12.375 37.625 -12.375 Z M 37.625 -12.375 "/></g></g></g><g fill="#000000" fill-opacity="1"><g transform="translate(439.897254, 137.588269)"><g><path d="M 20.578125 23.75 C 15.492188 23.75 11.90625 23.328125 9.8125 22.484375 C 7.726562 21.640625 6.6875 21.21875 6.6875 21.21875 L 6.6875 7.84375 L 14.03125 8.125 C 17.25 8.320312 19.835938 8.164062 21.796875 7.65625 C 23.765625 7.15625 25.265625 6.5 26.296875 5.6875 C 27.328125 4.875 28.054688 4.019531 28.484375 3.125 C 28.921875 2.238281 29.234375 1.53125 29.421875 1 L 30.796875 -3.09375 L 1.875 -74.40625 L 22.671875 -74.40625 L 40.515625 -25.90625 L 58.5625 -74.40625 L 79.078125 -74.40625 L 48.921875 0.4375 C 46.335938 6.757812 43.601562 11.597656 40.71875 14.953125 C 37.84375 18.316406 34.738281 20.625 31.40625 21.875 C 28.070312 23.125 24.460938 23.75 20.578125 23.75 Z M 20.578125 23.75 "/></g></g></g><g fill="#000000" fill-opacity="1"><g transform="translate(520.839706, 137.588269)"><g><path d="M 50.734375 1.4375 C 45.597656 1.4375 40.554688 0.789062 35.609375 -0.5 C 30.671875 -1.800781 26.160156 -3.742188 22.078125 -6.328125 C 18.003906 -8.921875 14.632812 -12.160156 11.96875 -16.046875 C 9.3125 -19.929688 7.71875 -24.488281 7.1875 -29.71875 L 28.703125 -29.71875 C 29.421875 -26.550781 30.785156 -23.882812 32.796875 -21.71875 C 34.816406 -19.5625 37.363281 -17.90625 40.4375 -16.75 C 43.507812 -15.601562 46.914062 -15.03125 50.65625 -15.03125 C 54.488281 -15.03125 57.988281 -15.507812 61.15625 -16.46875 C 64.320312 -17.4375 66.863281 -18.890625 68.78125 -20.828125 C 70.707031 -22.773438 71.671875 -25.210938 71.671875 -28.140625 C 71.671875 -30.773438 70.890625 -32.929688 69.328125 -34.609375 C 67.765625 -36.285156 65.664062 -37.648438 63.03125 -38.703125 C 60.394531 -39.765625 57.394531 -40.628906 54.03125 -41.296875 L 36.046875 -44.96875 C 28.179688 -46.457031 21.945312 -49.585938 17.34375 -54.359375 C 12.738281 -59.128906 10.363281 -65.5 10.21875 -73.46875 C 10.164062 -79.988281 11.898438 -85.632812 15.421875 -90.40625 C 18.953125 -95.175781 23.75 -98.859375 29.8125 -101.453125 C 35.882812 -104.046875 42.6875 -105.34375 50.21875 -105.34375 C 59.1875 -105.34375 66.726562 -103.9375 72.84375 -101.125 C 78.96875 -98.320312 83.625 -94.535156 86.8125 -89.765625 C 90 -84.992188 91.640625 -79.679688 91.734375 -73.828125 L 70.65625 -73.828125 C 70.269531 -77.472656 69.164062 -80.375 67.34375 -82.53125 C 65.519531 -84.6875 63.179688 -86.242188 60.328125 -87.203125 C 57.472656 -88.160156 54.222656 -88.640625 50.578125 -88.640625 C 47.796875 -88.640625 45.265625 -88.328125 42.984375 -87.703125 C 40.710938 -87.085938 38.785156 -86.210938 37.203125 -85.078125 C 35.617188 -83.953125 34.394531 -82.617188 33.53125 -81.078125 C 32.664062 -79.546875 32.234375 -77.820312 32.234375 -75.90625 C 32.234375 -72.882812 33.238281 -70.4375 35.25 -68.5625 C 37.269531 -66.695312 41.035156 -65.164062 46.546875 -63.96875 L 64.390625 -60.296875 C 70.773438 -59.046875 75.847656 -57.195312 79.609375 -54.75 C 83.378906 -52.3125 86.210938 -49.554688 88.109375 -46.484375 C 90.003906 -43.410156 91.25 -40.28125 91.84375 -37.09375 C 92.445312 -33.90625 92.75 -30.96875 92.75 -28.28125 C 92.75 -22.664062 90.984375 -17.613281 87.453125 -13.125 C 83.929688 -8.644531 79.023438 -5.097656 72.734375 -2.484375 C 66.453125 0.128906 59.117188 1.4375 50.734375 1.4375 Z M 50.734375 1.4375 "/></g></g></g><g fill="#000000" fill-opacity="1"><g transform="translate(620.416914, 137.588269)"><g><path d="M 11.65625 -104.046875 L 82.453125 -104.046875 L 82.390625 -86.484375 L 32.8125 -86.484375 L 32.8125 -60.375 L 75.765625 -60.375 L 75.765625 -43.171875 L 32.8125 -43.171875 L 32.8125 0 L 11.65625 0 Z M 11.65625 -104.046875 "/></g></g></g></g></g></g></g></g></svg>