<svg xmlns="http://www.w3.org/2000/svg" xmlns:xlink="http://www.w3.org/1999/xlink" width="2000" zoomAndPan="magnify" viewBox="0 0 1500 1499.999933" height="2000" preserveAspectRatio="xMidYMid meet" version="1.0"><path fill="#1565c0" d="M 755.171875 34.582031 L 1372.847656 265.175781 L 1372.847656 816.960938 C 1372.847656 1107.953125 1166.953125 1327.566406 755.171875 1475.808594 C 343.390625 1327.566406 137.496094 1107.953125 137.496094 816.960938 L 137.496094 265.175781 Z M 755.171875 34.582031 " fill-opacity="1" fill-rule="nonzero"/><path fill="#1976d2" d="M 755.171875 149.878906 L 1257.546875 339.296875 L 1257.546875 833.433594 C 1257.546875 1069.519531 1090.089844 1245.210938 755.171875 1360.507812 C 420.253906 1245.210938 252.796875 1069.519531 252.796875 833.433594 L 252.796875 339.296875 Z M 755.171875 149.878906 " fill-opacity="0.45" fill-rule="nonzero"/><path fill="#ffffff" d="M 755.171875 429.890625 L 985.769531 627.542969 L 524.574219 627.542969 Z M 755.171875 429.890625 " fill-opacity="0.95" fill-rule="nonzero"/><path fill="#ffffff" d="M 590.457031 627.542969 L 919.886719 627.542969 C 920.425781 627.542969 920.960938 627.570312 921.5 627.621094 C 922.035156 627.675781 922.570312 627.753906 923.097656 627.859375 C 923.628906 627.964844 924.148438 628.09375 924.667969 628.253906 C 925.183594 628.410156 925.691406 628.589844 926.1875 628.796875 C 926.6875 629.003906 927.171875 629.234375 927.648438 629.488281 C 928.125 629.742188 928.585938 630.019531 929.035156 630.320312 C 929.484375 630.617188 929.917969 630.941406 930.335938 631.28125 C 930.75 631.625 931.148438 631.984375 931.53125 632.367188 C 931.914062 632.75 932.273438 633.148438 932.617188 633.566406 C 932.960938 633.980469 933.28125 634.414062 933.582031 634.863281 C 933.878906 635.3125 934.15625 635.773438 934.410156 636.25 C 934.664062 636.726562 934.894531 637.210938 935.101562 637.710938 C 935.308594 638.210938 935.492188 638.714844 935.648438 639.234375 C 935.804688 639.75 935.933594 640.273438 936.039062 640.800781 C 936.144531 641.328125 936.222656 641.863281 936.277344 642.398438 C 936.328125 642.9375 936.355469 643.476562 936.355469 644.015625 L 936.355469 891.082031 C 936.355469 891.621094 936.328125 892.160156 936.277344 892.695312 C 936.222656 893.234375 936.144531 893.765625 936.039062 894.292969 C 935.933594 894.824219 935.804688 895.347656 935.648438 895.863281 C 935.492188 896.378906 935.308594 896.886719 935.101562 897.382812 C 934.894531 897.882812 934.664062 898.371094 934.410156 898.847656 C 934.15625 899.320312 933.878906 899.785156 933.582031 900.230469 C 933.28125 900.679688 932.960938 901.113281 932.617188 901.53125 C 932.273438 901.949219 931.914062 902.347656 931.53125 902.726562 C 931.148438 903.109375 930.75 903.472656 930.335938 903.8125 C 929.917969 904.15625 929.484375 904.476562 929.035156 904.777344 C 928.585938 905.078125 928.125 905.351562 927.648438 905.609375 C 927.171875 905.863281 926.6875 906.09375 926.1875 906.296875 C 925.691406 906.503906 925.183594 906.6875 924.667969 906.84375 C 924.148438 907 923.628906 907.128906 923.097656 907.234375 C 922.570312 907.339844 922.035156 907.421875 921.5 907.472656 C 920.960938 907.527344 920.425781 907.550781 919.886719 907.550781 L 590.457031 907.550781 C 589.917969 907.550781 589.382812 907.527344 588.84375 907.472656 C 588.308594 907.421875 587.773438 907.339844 587.246094 907.234375 C 586.714844 907.128906 586.195312 907 585.675781 906.84375 C 585.160156 906.6875 584.652344 906.503906 584.15625 906.296875 C 583.65625 906.09375 583.167969 905.863281 582.695312 905.609375 C 582.21875 905.351562 581.757812 905.078125 581.308594 904.777344 C 580.859375 904.476562 580.425781 904.15625 580.007812 903.8125 C 579.59375 903.472656 579.191406 903.109375 578.8125 902.726562 C 578.429688 902.347656 578.066406 901.949219 577.726562 901.53125 C 577.382812 901.113281 577.0625 900.679688 576.761719 900.230469 C 576.464844 899.785156 576.1875 899.320312 575.933594 898.847656 C 575.679688 898.371094 575.449219 897.882812 575.242188 897.382812 C 575.035156 896.886719 574.851562 896.378906 574.695312 895.863281 C 574.539062 895.347656 574.410156 894.824219 574.304688 894.292969 C 574.199219 893.765625 574.121094 893.234375 574.066406 892.695312 C 574.015625 892.160156 573.988281 891.621094 573.988281 891.082031 L 573.988281 644.015625 C 573.988281 643.476562 574.015625 642.9375 574.066406 642.398438 C 574.121094 641.863281 574.199219 641.328125 574.304688 640.800781 C 574.410156 640.273438 574.539062 639.75 574.695312 639.234375 C 574.851562 638.714844 575.035156 638.210938 575.242188 637.710938 C 575.449219 637.210938 575.679688 636.726562 575.933594 636.25 C 576.1875 635.773438 576.464844 635.3125 576.761719 634.863281 C 577.0625 634.414062 577.382812 633.980469 577.726562 633.566406 C 578.066406 633.148438 578.429688 632.75 578.8125 632.367188 C 579.191406 631.984375 579.59375 631.625 580.007812 631.28125 C 580.425781 630.941406 580.859375 630.617188 581.308594 630.320312 C 581.757812 630.019531 582.21875 629.742188 582.695312 629.488281 C 583.167969 629.234375 583.65625 629.003906 584.15625 628.796875 C 584.652344 628.589844 585.160156 628.410156 585.675781 628.253906 C 586.195312 628.09375 586.714844 627.964844 587.246094 627.859375 C 587.773438 627.753906 588.308594 627.675781 588.84375 627.621094 C 589.382812 627.570312 589.917969 627.542969 590.457031 627.542969 Z M 590.457031 627.542969 " fill-opacity="0.95" fill-rule="nonzero"/><path fill="#1565c0" d="M 713.992188 742.839844 L 796.351562 742.839844 C 796.890625 742.839844 797.425781 742.867188 797.964844 742.921875 C 798.5 742.972656 799.035156 743.050781 799.5625 743.15625 C 800.09375 743.261719 800.613281 743.394531 801.132812 743.550781 C 801.648438 743.707031 802.15625 743.886719 802.652344 744.09375 C 803.152344 744.300781 803.640625 744.53125 804.113281 744.785156 C 804.589844 745.039062 805.050781 745.316406 805.5 745.617188 C 805.949219 745.917969 806.382812 746.238281 806.800781 746.578125 C 807.214844 746.921875 807.617188 747.285156 807.996094 747.664062 C 808.378906 748.046875 808.742188 748.445312 809.082031 748.863281 C 809.425781 749.28125 809.746094 749.710938 810.046875 750.160156 C 810.34375 750.609375 810.621094 751.070312 810.875 751.546875 C 811.128906 752.023438 811.359375 752.511719 811.566406 753.007812 C 811.773438 753.507812 811.957031 754.015625 812.113281 754.53125 C 812.269531 755.046875 812.398438 755.570312 812.503906 756.097656 C 812.609375 756.628906 812.6875 757.160156 812.742188 757.699219 C 812.792969 758.234375 812.820312 758.773438 812.820312 759.3125 L 812.820312 891.082031 C 812.820312 891.621094 812.792969 892.160156 812.742188 892.695312 C 812.6875 893.234375 812.609375 893.765625 812.503906 894.292969 C 812.398438 894.824219 812.269531 895.347656 812.113281 895.863281 C 811.957031 896.378906 811.773438 896.886719 811.566406 897.382812 C 811.359375 897.882812 811.128906 898.371094 810.875 898.847656 C 810.621094 899.320312 810.34375 899.785156 810.046875 900.230469 C 809.746094 900.679688 809.425781 901.113281 809.082031 901.53125 C 808.742188 901.949219 808.378906 902.347656 807.996094 902.726562 C 807.617188 903.109375 807.214844 903.472656 806.800781 903.8125 C 806.382812 904.15625 805.949219 904.476562 805.5 904.777344 C 805.050781 905.078125 804.589844 905.351562 804.113281 905.609375 C 803.640625 905.863281 803.152344 906.09375 802.652344 906.296875 C 802.15625 906.503906 801.648438 906.6875 801.132812 906.84375 C 800.613281 907 800.09375 907.128906 799.5625 907.234375 C 799.035156 907.339844 798.5 907.421875 797.964844 907.472656 C 797.425781 907.527344 796.890625 907.550781 796.351562 907.550781 L 713.992188 907.550781 C 713.453125 907.550781 712.914062 907.527344 712.378906 907.472656 C 711.84375 907.421875 711.308594 907.339844 710.78125 907.234375 C 710.25 907.128906 709.726562 907 709.210938 906.84375 C 708.695312 906.6875 708.1875 906.503906 707.691406 906.296875 C 707.191406 906.09375 706.703125 905.863281 706.230469 905.609375 C 705.753906 905.351562 705.292969 905.078125 704.84375 904.777344 C 704.394531 904.476562 703.960938 904.15625 703.542969 903.8125 C 703.128906 903.472656 702.726562 903.109375 702.347656 902.726562 C 701.964844 902.347656 701.601562 901.949219 701.261719 901.53125 C 700.917969 901.113281 700.597656 900.679688 700.296875 900.230469 C 700 899.785156 699.722656 899.320312 699.46875 898.847656 C 699.210938 898.371094 698.980469 897.882812 698.777344 897.382812 C 698.570312 896.886719 698.386719 896.378906 698.230469 895.863281 C 698.074219 895.347656 697.945312 894.824219 697.839844 894.292969 C 697.734375 893.765625 697.65625 893.234375 697.601562 892.695312 C 697.546875 892.160156 697.523438 891.621094 697.523438 891.082031 L 697.523438 759.3125 C 697.523438 758.773438 697.546875 758.234375 697.601562 757.699219 C 697.65625 757.160156 697.734375 756.628906 697.839844 756.097656 C 697.945312 755.570312 698.074219 755.046875 698.230469 754.53125 C 698.386719 754.015625 698.570312 753.507812 698.777344 753.007812 C 698.980469 752.511719 699.210938 752.023438 699.46875 751.546875 C 699.722656 751.070312 700 750.609375 700.296875 750.160156 C 700.597656 749.710938 700.917969 749.28125 701.261719 748.863281 C 701.601562 748.445312 701.964844 748.046875 702.347656 747.664062 C 702.726562 747.285156 703.128906 746.921875 703.542969 746.578125 C 703.960938 746.238281 704.394531 745.917969 704.84375 745.617188 C 705.292969 745.316406 705.753906 745.039062 706.230469 744.785156 C 706.703125 744.53125 707.191406 744.300781 707.691406 744.09375 C 708.1875 743.886719 708.695312 743.707031 709.210938 743.550781 C 709.726562 743.394531 710.25 743.261719 710.78125 743.15625 C 711.308594 743.050781 711.84375 742.972656 712.378906 742.921875 C 712.914062 742.867188 713.453125 742.839844 713.992188 742.839844 Z M 713.992188 742.839844 " fill-opacity="1" fill-rule="nonzero"/><path stroke-linecap="round" transform="matrix(8.235657, 0, 0, 8.235576, 137.497464, 34.58154)" fill="none" stroke-linejoin="round" d="M 29.999908 117.999927 L 44.999945 117.999927 L 51.999805 104.000071 L 62.000146 133.999965 L 69.999849 111.999853 L 78.000027 121.999818 L 84.999886 117.999927 L 120.000131 117.999927 " stroke="#ffffff" stroke-width="3.5" stroke-opacity="0.92" stroke-miterlimit="4"/></svg>